<svg width="34" height="34" viewBox="0 0 34 34" fill="none" xmlns="http://www.w3.org/2000/svg">
<path d="M9.18498 18.05L13.685 22.55C14.27 23.135 15.215 23.135 15.8 22.55L24.8 13.55C25.385 12.95 25.385 12.005 24.8 11.42C24.2 10.82 23.255 10.82 22.67 11.42L13.67 20.42H15.785L11.285 15.92C10.685 15.32 9.73998 15.32 9.15498 15.92C8.55498 16.505 8.55498 17.45 9.15498 18.035L9.18498 18.05ZM30.485 16.985C30.485 24.44 24.44 30.485 16.985 30.485C9.51498 30.485 3.48498 24.44 3.48498 16.985C3.48498 9.515 9.51498 3.485 16.985 3.485C24.44 3.485 30.485 9.515 30.485 16.985ZM33.485 16.985C33.485 7.865 26.09 0.485001 16.985 0.485001C7.86498 0.485001 0.484985 7.865 0.484985 16.985C0.484985 26.09 7.86498 33.485 16.985 33.485C26.09 33.485 33.485 26.09 33.485 16.985Z" fill="#87DCE3"/>
</svg>
