<svg width="72" height="59" viewBox="0 0 72 59" fill="none" xmlns="http://www.w3.org/2000/svg">
<path d="M48.9038 7.94623H39.24C38.34 7.94623 37.4738 8.28373 36.81 8.89123L25.7512 19.0162C25.74 19.0275 25.7288 19.05 25.7175 19.0612C23.85 20.8162 23.8837 23.6175 25.4812 25.3612C26.91 26.925 29.9137 27.3412 31.7925 25.665C31.8037 25.6537 31.8262 25.6537 31.8375 25.6425L40.8262 17.4075C41.5575 16.7437 42.705 16.7887 43.3687 17.52C44.0437 18.2512 43.9875 19.3875 43.2562 20.0625L40.32 22.7512L56.7 36.0487C57.0262 36.3187 57.3187 36.6112 57.5887 36.915V15.1462L51.4462 9.00373C50.7825 8.32873 49.86 7.94623 48.9038 7.94623ZM61.2 15.1687V40.3575C61.2 42.3487 62.8087 43.9575 64.8 43.9575H72V15.1687H61.2ZM66.6 40.3575C65.61 40.3575 64.8 39.5475 64.8 38.5575C64.8 37.5675 65.61 36.7575 66.6 36.7575C67.59 36.7575 68.4 37.5675 68.4 38.5575C68.4 39.5475 67.59 40.3575 66.6 40.3575ZM0 43.9462H7.2C9.19125 43.9462 10.8 42.3375 10.8 40.3462V15.1687H0V43.9462ZM5.4 36.7575C6.39 36.7575 7.2 37.5675 7.2 38.5575C7.2 39.5475 6.39 40.3575 5.4 40.3575C4.41 40.3575 3.6 39.5475 3.6 38.5575C3.6 37.5562 4.41 36.7575 5.4 36.7575ZM54.4387 38.85L37.6425 25.215L34.2675 28.3087C30.9262 31.3575 25.8075 31.065 22.8262 27.8137C19.8 24.5062 20.0362 19.3875 23.3212 16.3725L32.5237 7.94623H23.0962C22.14 7.94623 21.2287 8.32873 20.5537 9.00373L14.4 15.1462V40.335H16.4587L26.64 49.5487C29.7225 52.0575 34.2562 51.585 36.765 48.5025L36.7875 48.48L38.8012 50.2237C40.59 51.6862 43.2338 51.405 44.685 49.6162L48.2175 45.2737L48.825 45.7687C50.3662 47.0175 52.6387 46.7925 53.8875 45.24L54.9562 43.9237C56.2162 42.3712 55.98 40.11 54.4387 38.85Z" fill="#1B2E73"/>
</svg>
