<svg width="71" height="72" viewBox="0 0 71 72" fill="none" xmlns="http://www.w3.org/2000/svg">
<g clip-path="url(#clip0_508_200)">
<path d="M41.7496 23.4572C40.0696 23.4572 38.7496 24.7772 38.7496 26.4572C38.7496 28.1072 40.0696 29.4572 41.7496 29.4572C43.3996 29.4572 44.7496 28.1072 44.7496 26.4572C44.7496 24.7772 43.3996 23.4572 41.7496 23.4572Z" fill="black"/>
<path d="M29.7496 23.4572C28.0696 23.4572 26.7496 24.7772 26.7496 26.4572C26.7496 28.1072 28.0696 29.4572 29.7496 29.4572C31.3996 29.4572 32.7496 28.1072 32.7496 26.4572C32.7496 24.7772 31.3996 23.4572 29.7496 23.4572Z" fill="black"/>
<path d="M30.8896 34.2872C30.6496 35.1272 31.0396 36.0272 31.8196 36.4172C34.2796 37.6172 37.1596 37.6172 39.6496 36.4172C40.5496 35.8772 40.9096 34.7072 40.3996 33.8072C40.0396 33.1772 39.4096 32.8172 38.7196 32.7872H32.7196H32.6896C31.7896 32.7572 31.0396 33.3572 30.8296 34.2272L30.8896 34.2872Z" fill="black"/>
<path d="M67.3486 57.8612C64.8586 56.0012 62.1586 54.4712 59.2996 53.3312V53.3012C61.3996 52.1912 63.4396 50.9312 65.3596 49.4912C65.9896 48.9512 66.1096 48.0212 65.5996 47.3612C65.5396 47.2712 65.4796 47.2412 65.4196 47.1812C55.8196 38.2712 58.1296 23.7512 58.1896 23.3612C58.1596 19.1312 56.9896 14.9912 54.7396 11.4212C55.4896 10.0112 55.9096 8.42123 55.9396 6.83123C55.9396 0.0812252 49.3396 0.0812256 46.1896 0.0812256V0.0512256C43.9396 -0.0987744 41.6896 0.291226 39.6196 1.16123C37.0096 0.651226 34.3096 0.651226 31.6996 1.16123C29.5996 0.291226 27.3796 -0.0987744 25.1296 0.0212256C21.9496 0.0212256 15.3796 0.0212252 15.3796 6.77123C15.3796 8.39123 15.7996 9.98123 16.5796 11.3912C14.2996 15.0212 13.0996 19.2212 13.1296 23.5112C13.1296 23.6312 15.4696 38.1452 5.86961 47.0762C5.23961 47.6162 5.20961 48.5762 5.77961 49.1762C5.80961 49.2062 5.86961 49.2662 5.92961 49.3262L5.89961 49.2962C7.78961 50.7062 9.82961 51.9662 11.9596 53.0762C9.07961 54.2162 6.37961 55.7462 3.91061 57.6062C2.05061 59.0162 0.970609 61.2062 1.00061 63.5462V70.4462C1.00061 71.2562 1.66061 71.9462 2.50061 71.9462H68.5006C69.3106 71.9462 70.0006 71.2562 70.0006 70.4462V63.5462C70.0006 61.2062 68.9206 58.9862 67.0906 57.5762L67.3486 57.8612ZM19.9696 6.95723C19.9666 5.78723 19.9996 4.97723 23.2096 4.76723C31.1896 4.19723 30.4396 6.17723 30.4396 6.92723C30.4096 9.80723 28.0696 12.1472 25.1896 12.1772C22.2796 12.1172 19.9696 9.80723 19.9396 6.92723L19.9696 6.95723ZM51.4696 6.95423C51.3796 9.80423 49.0696 12.1142 46.2196 12.2042C43.3096 12.1742 40.9696 9.83423 40.9696 6.95423C40.9696 5.54423 41.1496 4.85423 45.1906 4.70423C51.4306 4.52423 51.4696 5.57423 51.4696 6.92423V6.95423ZM35.1196 17.2442C35.3596 16.9142 35.8396 16.8542 36.1696 17.0942C36.1996 17.1242 36.2296 17.1542 36.2896 17.2142C39.2296 20.9342 43.6996 23.2142 48.4696 23.3942V23.3642C48.8596 23.3642 49.1896 23.6942 49.1896 24.1142V29.3642C49.1896 36.8042 43.1296 42.8642 35.6896 42.8642C28.2196 42.8642 22.1896 36.8042 22.1896 29.3642V24.0572C22.1596 23.6372 22.4896 23.3072 22.8796 23.3072C27.6496 23.0972 32.0896 20.8172 35.0596 17.0972L35.1196 17.2442ZM47.3716 51.3842H47.3416C47.7316 51.4142 48.0316 51.8042 47.9716 52.2242C47.9416 52.2542 47.9416 52.2842 47.9116 52.3442C44.3416 63.0542 38.9116 64.0142 36.0076 65.5442H35.9776C35.7376 65.6342 35.4976 65.6342 35.2876 65.5442C25.0876 60.4442 24.0676 55.4642 23.2876 52.2542H23.2576C23.1976 52.0442 23.2276 51.8042 23.3476 51.6542C23.4376 51.4742 23.6176 51.3542 23.8276 51.3242C31.5676 50.0942 39.4576 50.0942 47.1976 51.3242L47.3716 51.3842Z" fill="#1B2E73"/>
</g>
<defs>
<clipPath id="clip0_508_200">
<rect width="71.0006" height="71.9462" fill="white"/>
</clipPath>
</defs>
</svg>
