<svg width="72" height="70" viewBox="0 0 72 70" fill="none" xmlns="http://www.w3.org/2000/svg">
<path d="M3.6601e-06 9.94629C3.6601e-06 4.95129 4.005 0.946289 9 0.946289H63C67.95 0.946289 72 4.95129 72 9.94629V45.9463C72 50.8963 67.95 54.9463 63 54.9463H19.863C18.648 54.9463 17.523 55.3963 16.668 56.2513L3.78 69.0763C2.88 69.9313 1.44 69.9313 0.585004 69.0763C0.135004 68.6263 -0.0899963 68.0413 -0.0899963 67.4563V9.88779L3.6601e-06 9.94629ZM32.355 22.3933V22.3483C32.04 21.8983 31.68 21.4933 31.32 21.0883C30.69 20.4583 29.97 19.9633 29.205 19.6033L29.16 19.5583H29.115C28.035 19.0633 26.865 18.7933 25.695 18.7933C21.375 18.7483 17.892 22.1233 17.892 26.2633C17.892 30.4033 21.357 33.7333 25.695 33.7333C27.225 33.7333 28.665 33.2833 29.8845 32.5633C29.2545 34.2733 28.1295 36.1633 26.2395 38.0533H26.1945C25.4295 38.7283 25.4295 39.8983 26.1495 40.6183L26.1945 40.6633C26.9595 41.3833 28.1745 41.3383 28.9395 40.6183C34.92 34.6063 35.1 28.1713 33.165 23.8963C32.85 23.2213 32.535 22.6363 32.13 22.0963L32.355 22.3933ZM49.455 32.7433C48.825 34.4533 47.7 36.3433 45.81 38.2333H45.765C45.045 38.9083 45 40.0783 45.72 40.7983L45.765 40.8433C46.53 41.5633 47.745 41.5183 48.51 40.7983C54.495 34.8133 54.675 28.3873 52.74 24.1033C52.425 23.4283 52.11 22.8433 51.705 22.3033C51.39 21.8533 51.03 21.4033 50.67 21.0433C50.04 20.4133 49.32 19.9183 48.555 19.5583L48.51 19.5133C47.43 19.0183 46.26 18.7483 45.09 18.7483C40.77 18.7483 37.287 22.0783 37.287 26.2183C37.287 30.3583 40.752 33.6883 45.09 33.6883C46.62 33.6883 48.06 33.2383 49.275 32.5183L49.455 32.7433Z" fill="#007AC2"/>
</svg>
